<?xml version="1.0" encoding="UTF-8"?><svg xmlns="http://www.w3.org/2000/svg" xmlns:xlink="http://www.w3.org/1999/xlink" fill-opacity="1" color-rendering="auto" color-interpolation="auto" text-rendering="auto" stroke="black" stroke-linecap="square" width="462" stroke-miterlimit="10" shape-rendering="auto" stroke-opacity="1" fill="black" stroke-dasharray="none" font-weight="normal" stroke-width="1" height="381" font-family="'Dialog'" font-style="normal" stroke-linejoin="miter" font-size="12px" stroke-dashoffset="0" image-rendering="auto">
  <!--Generated by ySVG 2.5-->
  <defs id="genericDefs"/>
  <g>
    <defs id="defs1">
      <clipPath clipPathUnits="userSpaceOnUse" id="clipPath1">
        <path d="M0 0 L462 0 L462 381 L0 381 L0 0 Z"/>
      </clipPath>
      <clipPath clipPathUnits="userSpaceOnUse" id="clipPath2">
        <path d="M218 18 L680 18 L680 399 L218 399 L218 18 Z"/>
      </clipPath>
      <clipPath clipPathUnits="userSpaceOnUse" id="clipPath3">
        <path d="M0 0 L0 30 L67 30 L67 0 Z"/>
      </clipPath>
      <clipPath clipPathUnits="userSpaceOnUse" id="clipPath4">
        <path d="M0 0 L0 15 L86 15 L86 0 Z"/>
      </clipPath>
      <clipPath clipPathUnits="userSpaceOnUse" id="clipPath5">
        <path d="M0 0 L0 15 L52 15 L52 0 Z"/>
      </clipPath>
      <clipPath clipPathUnits="userSpaceOnUse" id="clipPath6">
        <path d="M0 0 L0 15 L151 15 L151 0 Z"/>
      </clipPath>
      <clipPath clipPathUnits="userSpaceOnUse" id="clipPath7">
        <path d="M0 0 L0 30 L65 30 L65 0 Z"/>
      </clipPath>
      <clipPath clipPathUnits="userSpaceOnUse" id="clipPath8">
        <path d="M0 0 L0 15 L76 15 L76 0 Z"/>
      </clipPath>
      <clipPath clipPathUnits="userSpaceOnUse" id="clipPath9">
        <path d="M0 0 L0 15 L158 15 L158 0 Z"/>
      </clipPath>
    </defs>
    <g stroke-linecap="butt" transform="matrix(1,0,0,1,-218,-18) translate(281,80)" text-rendering="geometricPrecision" font-family="sans-serif" shape-rendering="geometricPrecision" font-weight="bold" stroke-miterlimit="1.45">
      <text x="0" xml:space="preserve" y="12" clip-path="url(#clipPath3)" stroke="none">Mounting</text>
      <text x="67" xml:space="preserve" y="12" clip-path="url(#clipPath3)" font-weight="normal" stroke="none"> </text>
      <text x="14" xml:space="preserve" y="27" clip-path="url(#clipPath3)" font-weight="normal" stroke="none">Phase</text>
    </g>
    <g stroke-linecap="butt" transform="matrix(1,0,0,1,-218,-18) translate(271,194)" text-rendering="geometricPrecision" font-family="sans-serif" shape-rendering="geometricPrecision" font-weight="bold" stroke-miterlimit="1.45">
      <text x="2" xml:space="preserve" y="12" clip-path="url(#clipPath4)" stroke="none">constructor</text>
      <text x="84" xml:space="preserve" y="12" clip-path="url(#clipPath4)" font-weight="normal" stroke="none"> </text>
    </g>
    <g stroke-linecap="butt" transform="matrix(1,0,0,1,-218,-18) translate(288,277)" text-rendering="geometricPrecision" font-family="sans-serif" shape-rendering="geometricPrecision" font-weight="bold" stroke-miterlimit="1.45">
      <text x="2" xml:space="preserve" y="12" clip-path="url(#clipPath5)" stroke="none">render</text>
      <text x="50" xml:space="preserve" y="12" clip-path="url(#clipPath5)" font-weight="normal" stroke="none"> </text>
    </g>
    <g stroke-linecap="butt" transform="matrix(1,0,0,1,-218,-18) translate(239,361)" text-rendering="geometricPrecision" font-family="sans-serif" shape-rendering="geometricPrecision" font-weight="bold" stroke-miterlimit="1.45">
      <text x="2" xml:space="preserve" y="12" clip-path="url(#clipPath6)" stroke="none">componentDidMount</text>
      <text x="149" xml:space="preserve" y="12" clip-path="url(#clipPath6)" font-weight="normal" stroke="none"> </text>
    </g>
    <g stroke-linecap="butt" transform="matrix(1,0,0,1,-218,-18) translate(531,80)" text-rendering="geometricPrecision" font-family="sans-serif" shape-rendering="geometricPrecision" font-weight="bold" stroke-miterlimit="1.45">
      <text x="0" xml:space="preserve" y="12" clip-path="url(#clipPath7)" stroke="none">Updating</text>
      <text x="65" xml:space="preserve" y="12" clip-path="url(#clipPath7)" font-weight="normal" stroke="none"> </text>
      <text x="13" xml:space="preserve" y="27" clip-path="url(#clipPath7)" font-weight="normal" stroke="none">Phase</text>
    </g>
    <g stroke-linecap="butt" transform="matrix(1,0,0,1,-218,-18) translate(526,159)" text-rendering="geometricPrecision" font-family="sans-serif" shape-rendering="geometricPrecision" font-weight="bold" stroke-miterlimit="1.45">
      <text x="2" xml:space="preserve" y="12" clip-path="url(#clipPath8)" stroke="none">setState()</text>
      <text x="74" xml:space="preserve" y="12" clip-path="url(#clipPath8)" font-weight="normal" stroke="none"> </text>
    </g>
    <g stroke-linecap="butt" transform="matrix(1,0,0,1,-218,-18) translate(538,277)" text-rendering="geometricPrecision" font-family="sans-serif" shape-rendering="geometricPrecision" font-weight="bold" stroke-miterlimit="1.45">
      <text x="2" xml:space="preserve" y="12" clip-path="url(#clipPath5)" stroke="none">render</text>
      <text x="50" xml:space="preserve" y="12" clip-path="url(#clipPath5)" font-weight="normal" stroke="none"> </text>
    </g>
    <g stroke-linecap="butt" transform="matrix(1,0,0,1,-218,-18) translate(485,361)" text-rendering="geometricPrecision" font-family="sans-serif" shape-rendering="geometricPrecision" font-weight="bold" stroke-miterlimit="1.45">
      <text x="2" xml:space="preserve" y="12" clip-path="url(#clipPath9)" stroke="none">componentDidUpdate</text>
      <text x="156" xml:space="preserve" y="12" clip-path="url(#clipPath9)" font-weight="normal" stroke="none"> </text>
    </g>
    <g stroke-linecap="butt" transform="matrix(1,0,0,1,-218,-18)" fill="silver" text-rendering="geometricPrecision" shape-rendering="geometricPrecision" stroke="silver" stroke-miterlimit="1.45">
      <path fill="none" d="M314.5427 129.6042 L314.5427 178.9954" clip-path="url(#clipPath2)"/>
    </g>
    <g stroke-linecap="butt" transform="matrix(1,0,0,1,-218,-18)" fill="silver" text-rendering="geometricPrecision" shape-rendering="geometricPrecision" stroke="silver" stroke-miterlimit="1.45">
      <path d="M314.5427 186.9954 L319.5427 174.9954 L314.5427 177.9954 L309.5427 174.9954 Z" stroke="none" clip-path="url(#clipPath2)"/>
      <path fill="none" d="M314.5427 216.9996 L314.5427 262.2202" clip-path="url(#clipPath2)"/>
      <path d="M314.5427 270.2202 L319.5427 258.2202 L314.5427 261.2202 L309.5427 258.2202 Z" clip-path="url(#clipPath2)" stroke="none"/>
      <path fill="none" d="M314.5427 300.2496 L314.5427 345.4702" clip-path="url(#clipPath2)"/>
      <path d="M314.5427 353.4702 L319.5427 341.4702 L314.5427 344.4702 L309.5427 341.4702 Z" clip-path="url(#clipPath2)" stroke="none"/>
      <path fill="none" d="M355.027 62.2157 L361.4032 57.8321 L377.0234 49.0457 L392.6436 42.2119 L408.2638 37.3306 L423.884 34.4018 L439.5042 33.4255 L455.1243 34.4018 L470.7445 37.3306 L486.3647 42.2119 L501.9849 49.0457 L517.3755 57.703 L517.4579 57.7596" clip-path="url(#clipPath2)" stroke="rgb(237,237,237)"/>
      <path fill="rgb(237,237,237)" d="M524.0638 62.2721 L516.9753 51.3747 L516.6322 57.1956 L511.3347 59.6321 Z" clip-path="url(#clipPath2)" stroke="none"/>
      <path fill="none" d="M564.4656 181.9833 L564.4656 262.2491" clip-path="url(#clipPath2)"/>
      <path d="M564.4656 270.2491 L569.4656 258.2491 L564.4656 261.2491 L559.4656 258.2491 Z" clip-path="url(#clipPath2)" stroke="none"/>
      <path fill="none" d="M564.4656 300.2496 L564.4656 345.4702" clip-path="url(#clipPath2)"/>
      <path d="M564.4656 353.4702 L569.4656 341.4702 L564.4656 344.4702 L559.4656 341.4702 Z" clip-path="url(#clipPath2)" stroke="none"/>
    </g>
  </g>
</svg>
